<svg width="279" height="47" viewBox="0 0 279 47" fill="currentcolor" xmlns="http://www.w3.org/2000/svg">
<path d="M32.488 34.2655C30.4817 34.986 28.3563 35.3385 26.2188 35.3052C23.5994 35.3783 21.0029 34.8097 18.6666 33.6511C16.6191 32.5712 15.0255 30.8231 14.1643 28.7125L47.7134 22.3798C47.8179 18.1763 46.7198 14.0276 44.5425 10.3997C42.5037 7.10969 39.5713 4.43522 36.0705 2.67282C32.3961 0.85987 28.3263 -0.0563491 24.2097 0.00268201C19.8993 -0.0564289 15.6438 0.951628 11.8406 2.93274C8.23684 4.8068 5.23687 7.62083 3.17496 11.0613C1.04845 14.6149 -0.0476681 18.6663 0.00402048 22.7815C-0.0756708 26.933 1.03072 31.0242 3.19917 34.5963C5.37839 38.0905 8.53652 40.9029 12.3005 42.7012C16.5232 44.7201 21.1789 45.7247 25.8799 45.6313C34.0856 45.6313 40.4033 43.2683 44.5909 38.5424L37.5954 31.1464C36.1173 32.5009 34.3823 33.5604 32.488 34.2655V34.2655ZM24.9843 10.2106C26.9428 10.2095 28.8739 10.6606 30.6197 11.5271C32.3655 12.3936 33.8767 13.651 35.0296 15.1965L12.8572 19.6152C13.496 16.9423 15.0416 14.5586 17.2431 12.8514C19.4446 11.1441 22.1727 10.2135 24.9843 10.2106V10.2106Z" fill="#FBFBFB"/>
<path d="M171.017 5.55559C174.357 8.81646 176.028 13.7078 176.028 20.2295V45.584H162.884V22.2144C163.092 19.4195 162.305 16.6401 160.657 14.3458C159.86 13.483 158.873 12.8073 157.771 12.3695C156.668 11.9316 155.479 11.7429 154.291 11.8174C152.937 11.7619 151.588 11.993 150.334 12.4947C149.081 12.9963 147.953 13.7568 147.029 14.7238C145.055 17.1951 144.089 20.2933 144.318 23.4195V45.6313H131.102V22.2144C131.102 15.2831 128.238 11.8174 122.509 11.8174C121.154 11.7539 119.802 11.9813 118.547 12.4835C117.293 12.9857 116.166 13.7504 115.247 14.7238C113.282 17.1808 112.324 20.2637 112.56 23.3722V45.584H99.4167V1.32591H111.979V6.42988C113.675 4.55186 115.797 3.08717 118.176 2.15294C120.727 1.14097 123.459 0.634911 126.212 0.664281C129.216 0.619139 132.189 1.24981 134.902 2.50738C137.455 3.7044 139.617 5.56947 141.147 7.89491C143.006 5.58287 145.416 3.74956 148.167 2.55464C151.099 1.2798 154.277 0.635111 157.486 0.664281C159.963 0.541819 162.44 0.912264 164.766 1.75311C167.092 2.59395 169.219 3.88765 171.017 5.55559V5.55559Z" fill="#FBFBFB"/>
<path d="M95.6407 1.42038H81.0446L73.0326 11.4157L80.2701 21.0565L95.6407 1.42038Z" fill="#00D1BC"/>
<path d="M94.9872 45.5839L61.3413 1.42038H46.6L63.4471 23.5612L46.0917 45.5839H61.1718L70.7815 33.2966L80.0765 45.5839H94.9872Z" fill="#FBFBFB"/>
<path d="M275.198 11.652C273.05 8.2632 269.95 5.54835 266.266 3.8306C262.256 1.96364 257.856 1.03331 253.413 1.1132H232.572V46.2746H252.832C257.275 46.3545 262.256 44.7099 266.266 42.8429C269.932 41.1177 273.015 38.4035 275.15 35.0216C277.328 31.4544 278.427 27.3583 278.321 23.2068C278.393 19.1476 277.313 15.1481 275.198 11.652ZM245.571 12.0773H252.832C256.143 11.8893 259.397 12.9848 261.885 15.1255C263 16.1836 263.869 17.4634 264.433 18.8781C264.997 20.2929 265.242 21.8094 265.153 23.325C265.244 24.8442 265 26.3648 264.436 27.7837C263.872 29.2025 263.002 30.4864 261.885 31.548C259.397 33.6888 256.143 34.7842 252.832 34.5962H245.571V12.0773Z" fill="#FBFBFB"/>
<path d="M213.014 34.2653C211.007 34.9838 208.882 35.3362 206.745 35.305C204.125 35.3812 201.528 34.8124 199.193 33.651C197.145 32.571 195.551 30.823 194.69 28.7124L228.312 22.3797C228.41 18.1737 227.304 14.0245 225.117 10.3995C223.078 7.10952 220.146 4.43505 216.645 2.67265C212.867 0.876841 208.712 -0.0346718 204.511 0.010447C200.309 0.0555659 196.176 1.05607 192.439 2.93257C188.829 4.80614 185.821 7.61977 183.749 11.0611C181.613 14.6442 180.525 18.7308 180.603 22.8759C180.523 27.0274 181.629 31.1185 183.798 34.6907C185.977 38.1849 189.135 40.9972 192.899 42.7956C197.12 44.8197 201.777 45.8246 206.478 45.7256C214.66 45.7256 221.002 43.3627 225.165 38.6368L218.17 31.2407C216.67 32.5686 214.919 33.5962 213.014 34.2653ZM205.583 10.2105C207.545 10.2094 209.479 10.6603 211.229 11.5267C212.979 12.393 214.494 13.6503 215.652 15.1963L193.48 19.615C194.114 16.944 195.655 14.5609 197.852 12.8534C200.05 11.1459 202.774 10.2144 205.583 10.2105V10.2105Z" fill="#FBFBFB"/>
</svg>
