<svg width="114" height="30" viewBox="0 0 114 30" fill="none" xmlns="http://www.w3.org/2000/svg">
<path d="M22.6422 29.7345H17.3325L5.30973 11.5676V29.7345H0V3.22377H5.30973L17.3325 21.4286V3.22377H22.6422V29.7345Z" fill="#016241"/>
<path d="M45.8288 8.72314V29.7345H40.4811V27.0796C39.7984 27.9899 38.9008 28.7105 37.7883 29.2415C36.7011 29.7472 35.5127 30 34.2232 30C32.5797 30 31.1258 29.6587 29.8616 28.976C28.5974 28.268 27.5987 27.244 26.8654 25.9039C26.1575 24.5386 25.8035 22.9204 25.8035 21.0493V8.72314H31.1132V20.2908C31.1132 21.9595 31.5304 23.2491 32.3648 24.1593C33.1992 25.0443 34.337 25.4867 35.7782 25.4867C37.2447 25.4867 38.3951 25.0443 39.2295 24.1593C40.0639 23.2491 40.4811 21.9595 40.4811 20.2908V8.72314H45.8288Z" fill="#016241"/>
<path d="M55.3534 13.0847V23.2491C55.3534 23.957 55.5177 24.4753 55.8464 24.804C56.2004 25.1075 56.782 25.2592 57.5911 25.2592H60.0563V29.7345H56.7188C52.2434 29.7345 50.0057 27.5601 50.0057 23.2111V13.0847H47.5026V8.72314H50.0057V3.52718H55.3534V8.72314H60.0563V13.0847H55.3534Z" fill="#016241"/>
<path d="M67.2887 11.9848C67.9714 10.8723 68.8564 10 69.9436 9.36789C71.0561 8.73578 72.3203 8.41972 73.7363 8.41972V13.9949H72.333C70.6642 13.9949 69.4 14.3869 68.5403 15.1707C67.7059 15.9545 67.2887 17.3199 67.2887 19.2668V29.7345H61.979V8.72314H67.2887V11.9848Z" fill="#016241"/>
<path d="M78.1091 6.21998C77.1736 6.21998 76.3898 5.9292 75.7576 5.34766C75.1508 4.74083 74.8474 3.99494 74.8474 3.10999C74.8474 2.22503 75.1508 1.49178 75.7576 0.91024C76.3898 0.303413 77.1736 0 78.1091 0C79.0446 0 79.8158 0.303413 80.4226 0.91024C81.0547 1.49178 81.3708 2.22503 81.3708 3.10999C81.3708 3.99494 81.0547 4.74083 80.4226 5.34766C79.8158 5.9292 79.0446 6.21998 78.1091 6.21998ZM80.726 8.72314V29.7345H75.4163V8.72314H80.726Z" fill="#016241"/>
<path d="M99.6713 24.6901H89.1277L87.3831 29.7344H81.8079L91.3275 3.22363H97.5095L107.029 29.7344H101.416L99.6713 24.6901ZM98.2301 20.4423L94.3995 9.36776L90.5689 20.4423H98.2301Z" fill="#F48722"/>
<path d="M114.001 3.26156V29.7344H108.691V3.26156H114.001Z" fill="#F48722"/>
</svg>
